:SAMPLES-PER-SECOND 30
:FULLY-SPECIFIED
:DEGREES
110
root  2.78878 32.3913 -0.706155 -10.3776 -87.7429 4.69971
RightUpLeg  -30.4418 -25.3755 -20.6654
RightLeg  62.3954 -1.17493 -3.04977
RightFoot  -13.8473 0.285919 17.2439
RightToes  -1.33073e-015 0 -3.6325e-017
Spine  28.7501 0.755048 0.139577
Spine1  -13.3556 0.889963 -2.17877
HEad  -17.6397 1.26988 -3.71482
LeftShoulder1  0.0472749 6.18036 11.8914
LeftArm  -67.8384 -13.5539 -9.91423
LeftForeArm  19.6994 -74.813 -47.1102
LeftHand  0.307574 6.11 43.8801
RightShoulder  -0.0332605 -4.77802 -6.5793
RightArm  -77.1598 1.51961 5.01047
RightForeArm  -12.536 69.7408 35.1474
RightHand  -3.68028 4.12521 -43.1261
LeftUpLeg  -28.0785 17.1186 18.656
LeftLeg  66.4575 -1.43558 -2.85327
LeftFoot  -23.175 -1.71514 -17.717
LeftToes  -4.0021e-011 8.38769e-011 -3.99229e-011
111
root  2.73271 32.2711 -1.19055 -1.13237 -86.9478 -4.26717
RightUpLeg  -30.8887 -25.8344 -19.554
RightLeg  63.6311 -1.27358 -3.385
RightFoot  -14.8482 0.423601 17.067
RightToes  -1.33073e-015 0 -3.6325e-017
Spine  28.3135 0.228106 0.263727
Spine1  -11.2692 0.338245 -1.08133
HEad  -20.6434 1.91432 -4.27368
LeftShoulder1  0.0614492 7.4789 11.4946
LeftArm  -69.6602 -12.7461 -11.9337
LeftForeArm  25.4112 -76.3299 -57.5612
LeftHand  0.736424 7.08955 46.0436
RightShoulder  -0.0506331 -5.16592 -6.13382
RightArm  -77.7413 0.308724 5.73591
RightForeArm  -8.74219 71.9779 41.8021
RightHand  -3.66319 3.69188 -44.7725
LeftUpLeg  -28.7087 14.8186 19.3168
LeftLeg  66.2129 -0.718494 -1.04519
LeftFoot  -23.2541 -1.86177 -19.0841
LeftToes  -4.0021e-011 8.38769e-011 -3.99229e-011
112
root  2.55748 33.098 -1.7438 0.340081 -87.1968 -5.75665
RightUpLeg  -28.943 -24.3052 -17.8406
RightLeg  60.5981 -2.52254 -5.3227
RightFoot  -14.955 0.414856 16.24
RightToes  -1.33073e-015 0 -3.6325e-017
Spine  27.6606 0.326018 0.377755
Spine1  -10.7506 0.463743 -0.695622
HEad  -21.152 2.19069 -4.09512
LeftShoulder1  -0.0360111 6.3886 7.89595
LeftArm  -66.3262 -10.2693 -17.643
LeftForeArm  61.1146 -78.4472 -93.8502
LeftHand  0.747131 7.11161 46.0224
RightShoulder  -0.0597415 -4.53923 -2.52569
RightArm  -74.0868 -3.72158 11.0962
RightForeArm  19.667 77.0679 69.2161
RightHand  -3.45228 3.33241 -44.0104
LeftUpLeg  -26.3698 12.3136 19.9417
LeftLeg  61.7978 0.021272 0.675147
LeftFoot  -19.4646 -1.47561 -22.3652
LeftToes  -4.0021e-011 8.38769e-011 -3.99229e-011
113
root  2.29765 34.5262 -2.34021 -9.31354 -88.0792 4.12509
RightUpLeg  -25.5398 -22.1737 -16.1279
RightLeg  53.831 -4.48755 -6.95738
RightFoot  -12.6436 0.0871274 15.0068
RightToes  -1.33073e-015 0 -3.6325e-017
Spine  26.7016 0.69967 -0.235002
Spine1  -11.714 0.72675 -0.525025
HEad  -19.2222 2.86991 -3.58555
LeftShoulder1  -0.0170966 3.81352 1.36773
LeftArm  -59.1666 -5.70608 -22.6293
LeftForeArm  93.9689 -76.8893 -121.556
LeftHand  0.691769 6.99819 45.5989
RightShoulder  0.0723555 -2.93032 3.90864
RightArm  -68.1615 -7.90256 17.05
RightForeArm  58.9747 77.7718 104.465
RightHand  -3.29049 3.20521 -42.7154
LeftUpLeg  -22.3997 10.2373 19.7035
LeftLeg  54.1524 2.30357 3.81228
LeftFoot  -12.8931 -0.267596 -23.718
LeftToes  -4.0021e-011 8.38769e-011 -3.99229e-011
114
root  1.935 36.2106 -2.89801 -26.1576 -88.5053 22.1926
RightUpLeg  -21.4156 -20.6165 -14.4109
RightLeg  44.1683 -6.90389 -7.42129
RightFoot  -9.2539 -0.317026 13.8516
RightToes  -1.33073e-015 0 -3.6325e-017
Spine  24.7141 0.755148 -1.25111
Spine1  -12.9392 0.551428 0.0763046
HEad  -15.9738 4.1121 -3.0545
LeftShoulder1  0.284429 1.56135 -7.06848
LeftArm  -52.3488 0.30921 -24.8944
LeftForeArm  100.075 -76.8467 -122.804
LeftHand  0.761487 7.14106 46.127
RightShoulder  0.451337 -1.06561 11.4299
RightArm  -62.5858 -10.9734 21.2594
RightForeArm  72.7869 77.048 114.663
RightHand  -3.23989 3.16444 -42.2964
LeftUpLeg  -19.0215 9.15219 18.1393
LeftLeg  45.5429 7.81015 8.79119
LeftFoot  -5.09203 1.0855 -19.7995
LeftToes  -4.0021e-011 8.38769e-011 -3.99229e-011
115
root  1.50468 37.7547 -3.38573 -36.4012 -88.4552 34.1023
RightUpLeg  -17.1065 -19.3552 -12.8442
RightLeg  33.8196 -9.70516 -7.16717
RightFoot  -6.49563 -0.600229 13.0618
RightToes  -1.33073e-015 0 -3.6325e-017
Spine  21.9292 0.634426 -2.04461
Spine1  -13.7768 0.265658 0.987495
HEad  -12.4294 5.08211 -2.60254
LeftShoulder1  0.808096 -0.152482 -15.2582
LeftArm  -48.7703 6.21729 -25.2813
LeftForeArm  87.5497 -78.0797 -111.115
LeftHand  0.74823 7.0889 46.5828
RightShoulder  0.954039 0.44137 17.7832
RightArm  -59.4832 -13.5163 23.5908
RightForeArm  68.4633 77.5425 109.15
RightHand  -3.18712 3.08731 -42.0135
LeftUpLeg  -17.1636 10.5886 15.5878
LeftLeg  39.3244 13.9253 12.3857
LeftFoot  0.707298 1.42161 -13.227
LeftToes  -4.0021e-011 8.38769e-011 -3.99229e-011
116
root  1.14942 38.8314 -3.80449 -44.5289 -88.2703 43.1195
RightUpLeg  -13.143 -18.1032 -11.9549
RightLeg  25.5819 -12.1823 -6.51303
RightFoot  -4.87098 -0.759721 12.7866
RightToes  -1.33073e-015 0 -3.6325e-017
Spine  19.7848 0.770735 -2.57866
Spine1  -14.2807 0.320642 1.66262
HEad  -9.28618 5.15697 -2.41215
LeftShoulder1  1.39302 -1.65789 -20.675
LeftArm  -47.7772 10.2695 -25.295
LeftForeArm  72.8027 -78.5525 -100.129
LeftHand  0.572729 6.6791 46.5743
RightShoulder  1.28676 1.21863 21.0654
RightArm  -59.0762 -15.7957 24.9143
RightForeArm  60.935 77.9747 101.811
RightHand  -3.18997 3.19445 -41.57
LeftUpLeg  -16.6363 15.5026 12.4002
LeftLeg  37.6822 14.8953 12.3879
LeftFoot  0.908165 1.15539 -10.8118
LeftToes  -4.0021e-011 8.38769e-011 -3.99229e-011
